<svg width="50px" height="50px" viewBox="0 0 50 50" xmlns="http://www.w3.org/2000/svg">
  <defs>
    <linearGradient id="ai-bg" x1="0" y1="0" x2="1" y2="1">
      <stop offset="0" stop-color="#7b5cff"/>
      <stop offset="1" stop-color="#4a30d9"/>
    </linearGradient>
    <clipPath id="ai-clip"><rect x="4.5" y="4.5" width="41" height="41" rx="9.2"/></clipPath>
  </defs>
  <g clip-path="url(#ai-clip)">
    <rect x="4.5" y="4.5" width="41" height="41" fill="url(#ai-bg)"/>
    <!-- 大四角星 + 两颗小星(AI 闪光) -->
    <path d="M25 12 l2.6 7.4 7.4 2.6 -7.4 2.6 -2.6 7.4 -2.6 -7.4 -7.4 -2.6 7.4 -2.6 z" fill="#ffffff"/>
    <path d="M34.5 28.5 l1.3 3.5 3.5 1.3 -3.5 1.3 -1.3 3.5 -1.3 -3.5 -3.5 -1.3 3.5 -1.3 z" fill="#ffe27a"/>
    <path d="M15 30 l0.95 2.6 2.6 0.95 -2.6 0.95 -0.95 2.6 -0.95 -2.6 -2.6 -0.95 2.6 -0.95 z" fill="#9fd8ff"/>
  </g>
</svg>
