<svg width="50px" height="50px" viewBox="-3.049 -3.049 56.098 56.098" version="1.1" xmlns="http://www.w3.org/2000/svg">
    <title>GitHub</title>
    <path fill="#1f2328" fill-rule="evenodd" clip-rule="evenodd" d="M25 2C12.3 2 2 12.3 2 25c0 10.16 6.59 18.78 15.73 21.82 1.15.21 1.57-.5 1.57-1.11 0-.55-.02-2-.03-3.92-6.4 1.39-7.75-3.08-7.75-3.08-1.05-2.66-2.56-3.37-2.56-3.37-2.09-1.43.16-1.4.16-1.4 2.31.16 3.53 2.37 3.53 2.37 2.05 3.52 5.39 2.5 6.7 1.91.21-1.49.8-2.5 1.46-3.08-5.11-.58-10.48-2.55-10.48-11.37 0-2.51.9-4.57 2.36-6.18-.24-.58-1.02-2.92.22-6.08 0 0 1.93-.62 6.32 2.36a22 22 0 0 1 11.5 0c4.39-2.98 6.31-2.36 6.31-2.36 1.25 3.16.46 5.5.23 6.08 1.47 1.61 2.36 3.67 2.36 6.18 0 8.84-5.38 10.78-10.5 11.35.82.71 1.56 2.11 1.56 4.25 0 3.07-.03 5.55-.03 6.3 0 .62.41 1.33 1.58 1.1C41.42 43.77 48 35.15 48 25 48 12.3 37.7 2 25 2Z"/>
</svg>
