<svg xmlns="http://www.w3.org/2000/svg" width="50" height="50" viewBox="0 0 50 50">
  <rect width="50" height="50" rx="11" fill="#ffffff"/>
  <g transform="translate(11 11)">
    <path fill="#4285F4" d="M27.5 14.3c0-.93-.08-1.82-.24-2.68H14v5.07h7.57a6.47 6.47 0 0 1-2.81 4.25v3.53h4.54c2.66-2.45 4.2-6.06 4.2-10.17z"/>
    <path fill="#34A853" d="M14 28c3.78 0 6.95-1.25 9.27-3.39l-4.54-3.52c-1.26.84-2.87 1.34-4.73 1.34-3.64 0-6.72-2.46-7.82-5.76H1.49v3.64A14 14 0 0 0 14 28z"/>
    <path fill="#FBBC05" d="M6.18 16.67a8.42 8.42 0 0 1 0-5.34V7.69H1.49a14 14 0 0 0 0 12.62l4.69-3.64z"/>
    <path fill="#EA4335" d="M14 5.57c2.05 0 3.9.71 5.35 2.09l4.01-4.01A13.43 13.43 0 0 0 14 0 14 14 0 0 0 1.49 7.69l4.69 3.64C7.28 8.03 10.36 5.57 14 5.57z"/>
  </g>
</svg>
