<svg width="50px" height="50px" viewBox="0 0 50 50" xmlns="http://www.w3.org/2000/svg">
  <defs>
    <linearGradient id="pyl-bg" x1="0" y1="0" x2="0" y2="1">
      <stop offset="0" stop-color="#2b2b30"/>
      <stop offset="1" stop-color="#1a1a1e"/>
    </linearGradient>
    <clipPath id="pyl-clip"><rect x="4.5" y="4.5" width="41" height="41" rx="9.2"/></clipPath>
  </defs>
  <g clip-path="url(#pyl-clip)">
    <rect x="4.5" y="4.5" width="41" height="41" fill="url(#pyl-bg)"/>
    <!-- Python 双蛇环 -->
    <path d="M24.6 11.5c-4.4 0-5.4 2-5.4 4.1v3h7.3v1.4H15.6c-2.6 0-4.1 2.2-4.1 5s1.5 5 4.1 5h2.4v-3.3c0-2.4 2-4.4 4.5-4.4h6.1c2 0 3.6-1.6 3.6-3.7v-3c0-2.1-1.2-4.1-5.3-4.1z" fill="#3d7fbf"/>
    <circle cx="21.6" cy="14.6" r="1.3" fill="#fff"/>
    <path d="M25.4 38.5c4.4 0 5.4-2 5.4-4.1v-3h-7.3V30h10.9c2.6 0 4.1-2.2 4.1-5s-1.5-5-4.1-5H32v3.3c0 2.4-2 4.4-4.5 4.4h-6.1c-2 0-3.6 1.6-3.6 3.7v3c0 2.1 1.2 4.1 5.3 4.1z" fill="#ffd44a"/>
    <circle cx="28.4" cy="35.4" r="1.3" fill="#2b2b30"/>
  </g>
</svg>
