<?xml version="1.0" encoding="UTF-8"?>
<!--Generator: Apple Native CoreSVG 341-->
<!DOCTYPE svg
PUBLIC "-//W3C//DTD SVG 1.1//EN"
       "http://www.w3.org/Graphics/SVG/1.1/DTD/svg11.dtd">
<svg version="1.1" xmlns="http://www.w3.org/2000/svg" xmlns:xlink="http://www.w3.org/1999/xlink" viewBox="0 0 99.6094 99.6582">
 <g>
  <rect height="99.6582" opacity="0" width="99.6094" x="0" y="0"/>
  <path d="M49.8047 99.6094C77.2949 99.6094 99.6094 77.2949 99.6094 49.8047C99.6094 22.3145 77.2949 0 49.8047 0C22.3145 0 0 22.3145 0 49.8047C0 77.2949 22.3145 99.6094 49.8047 99.6094ZM49.8047 91.3086C26.8555 91.3086 8.30078 72.7539 8.30078 49.8047C8.30078 26.8555 26.8555 8.30078 49.8047 8.30078C72.7539 8.30078 91.3086 26.8555 91.3086 49.8047C91.3086 72.7539 72.7539 91.3086 49.8047 91.3086Z" fill="white" fill-opacity="1"/>
  <path d="M29.3945 71.5332L70.1172 71.5332C75 71.5332 77.4414 69.043 77.4414 64.2578L77.4414 35.5469C77.4414 30.7129 75 28.3203 70.1172 28.3203L29.3945 28.3203C24.5605 28.3203 22.0703 30.7129 22.0703 35.5469L22.0703 64.2578C22.0703 69.0918 24.5605 71.5332 29.3945 71.5332ZM29.5898 67.0898C27.6367 67.0898 26.5137 65.918 26.5137 64.0137L26.5137 61.8652L33.0566 56.3477C34.082 55.4688 35.2051 54.9805 36.2793 54.9805C37.4023 54.9805 38.5742 55.4688 39.6484 56.3965L44.1406 60.4492L55.3711 50.4883C56.4941 49.5117 57.7637 48.9746 59.1309 48.9746C60.4004 48.9746 61.7676 49.5117 62.8418 50.5371L72.998 59.7656L72.998 64.0137C72.998 65.918 71.875 67.0898 69.9219 67.0898ZM39.6973 50.4883C36.4746 50.4883 33.8379 47.9004 33.8379 44.6777C33.8379 41.5527 36.4746 38.916 39.6973 38.916C42.8223 38.916 45.4102 41.5527 45.4102 44.6777C45.4102 47.9004 42.8223 50.4883 39.6973 50.4883Z" fill="white" fill-opacity="1"/>
 </g>
</svg>
